<svg width="400" height="225" viewBox="0 0 400 225" version="1.1" xmlns="http://www.w3.org/2000/svg">
  <defs>
    <linearGradient id="sewingGrad" x1="0%" y1="0%" x2="100%" y2="100%">
      <stop offset="0%" style="stop-color:#222;stop-opacity:1" />
      <stop offset="100%" style="stop-color:#333;stop-opacity:1" />
    </linearGradient>
  </defs>
  <rect width="400" height="225" fill="#181818"/>
  <!-- Фон для работы -->
  <rect x="80" y="40" width="240" height="140" fill="url(#sewingGrad)" stroke="#FFD600" stroke-width="2"/>
  <!-- Декоративная строчка сверху -->
  <path d="M100 60 q10 -10 20 0 q10 10 20 0 q10 -10 20 0 q10 10 20 0 q10 -10 20 0 q10 10 20 0 q10 -10 20 0" 
        stroke="#FFD600" stroke-width="1" fill="none"/>
  <!-- Иголка с ниткой -->
  <line x1="160" y1="80" x2="240" y2="140" stroke="#FFD600" stroke-width="2"/>
  <path d="M240 140 q20 10 10 20 q-10 10 -20 20" stroke="#FFD600" stroke-width="1" fill="none"/>
  <!-- Ножницы -->
  <path d="M180 120 l-20 20 M180 140 l-20 -20" stroke="#FFD600" stroke-width="2"/>
  <circle cx="150" cy="130" r="5" stroke="#FFD600" stroke-width="1" fill="none"/>
</svg>
